<svg id="Layer_1" data-name="Layer 1" xmlns="http://www.w3.org/2000/svg" viewBox="0 0 201.92 83.21"><defs><style>.cls-1{fill:#fff;}</style></defs><title>logo</title><path d="M182.63,61.44q1.44,1.59,0,3.67L182,66q-.26.36-.33.36s-.07-.12-.07-.36a5.91,5.91,0,0,1,.07-.79q.15-.87.15-.9a2.92,2.92,0,0,0-.36.54c-.58,1.15-.87.81-.87-1,0-1-.14-1.51-.43-1.51a3.29,3.29,0,0,0-1.15.5c-.58.34-1.22.76-1.94,1.26s-1.44,1-2.16,1.62a22.4,22.4,0,0,0-1.73,1.51q-2.38,2.39-8.5,11.67c-.62,1-1.25,1.95-1.87,3l-1.73,2.88c-.53.89-1,1.64-1.29,2.24a4.7,4.7,0,0,0-.51,1c0,.1.15.24.43.43a8.44,8.44,0,0,0,1,.58,7,7,0,0,0,.9.36,5.33,5.33,0,0,0,1.12.21c.43,0,1,.09,1.55.11l2.34.11c1.24,0,2.59,0,4,0s2.57-.15,3.38-.25a22.29,22.29,0,0,1,2.56-.18,1.14,1.14,0,0,1,.83.4c.28.38.39.65.32.79s-.37.31-.9.5a7.81,7.81,0,0,1-1.4.33l-2.34.39c-.87.15-1.74.28-2.63.4s-1.65.21-2.27.25c-.29,0-.34.09-.14.11a8.65,8.65,0,0,0,1.08,0c.43,0,1,0,1.8-.11s1.59-.17,2.48-.29,1.76-.25,2.63-.4a19.65,19.65,0,0,0,2.09-.43c.33,0,.5.15.5.43.14.53-1.22,1.18-4.1,2a20.06,20.06,0,0,1-5.66.72,22.11,22.11,0,0,1-5.86-1.08c-.39-.1-.59-.12-.62-.07a2.36,2.36,0,0,0,.11.65c.05.24.11.64.18,1.22s.13,1.2.18,1.87a19.39,19.39,0,0,1-.32,4.72,34.42,34.42,0,0,1-1.44,5.4,41.21,41.21,0,0,1-2.41,5.5,36.91,36.91,0,0,1-3.17,5,27.68,27.68,0,0,1-2.05,2.45c-.84.91-1.71,1.8-2.6,2.67s-1.72,1.62-2.52,2.26a8.53,8.53,0,0,1-1.69,1.19,5.32,5.32,0,0,1-4.1.43,4.7,4.7,0,0,1-2.45-2.37,11.2,11.2,0,0,1-1-4.25,29.58,29.58,0,0,1,.1-5.22,34.54,34.54,0,0,1,1-5.33,24.39,24.39,0,0,1,1.66-4.5q11.73-23.61,18.93-33.62c.68-.91,1.44-1.91,2.31-3s1.7-2.11,2.52-3.1,1.58-1.87,2.3-2.66A13.6,13.6,0,0,1,169.6,61a17.81,17.81,0,0,1,1.91-1.33,24.26,24.26,0,0,1,2.19-1.22,21.69,21.69,0,0,1,2.05-.91,5,5,0,0,1,1.48-.36,5.13,5.13,0,0,1,2.23.69,4.9,4.9,0,0,1,1.73,1.62,10.8,10.8,0,0,0,.68,1A8.45,8.45,0,0,0,182.63,61.44Zm-41.69,58.18c.1-.29.07-.48-.07-.58s-.14-.05-.14.44a1.93,1.93,0,0,0,0,.25C140.79,119.85,140.85,119.81,140.94,119.62Zm37.95-59.11a2.09,2.09,0,0,0,.64-.22c.05,0,0-.12-.28-.22a2.25,2.25,0,0,0-1.73,0,12.57,12.57,0,0,0-2.88,1.47c-.72.44-1.35.85-1.87,1.23A14.77,14.77,0,0,0,171.29,64c-.46.44-.91.92-1.37,1.44s-1,1.15-1.55,1.87c-1.53,2-3.08,4.09-4.64,6.34s-3.16,4.73-4.79,7.42-3.31,5.61-5,8.78-3.55,6.65-5.47,10.44q-4,7.84-5.69,12T141,117.89c.05.38.1.54.15.47a6.2,6.2,0,0,0,.29-1,17,17,0,0,1,.75-2.09q.62-1.51,1.26-3c.24-.57.63-1.44,1.15-2.59s1.14-2.43,1.84-3.85l2.23-4.5c.79-1.58,1.55-3.11,2.27-4.57s1.39-2.77,2-3.93l1.44-2.66c1.53-2.73,3.13-5.44,4.78-8.1s3.26-5.13,4.79-7.42,3-4.25,4.32-5.94A33.09,33.09,0,0,1,171.69,65a17.27,17.27,0,0,1,1.76-1.37c.7-.48,1.39-.93,2.09-1.37s1.34-.8,1.94-1.11A7.79,7.79,0,0,1,178.89,60.51ZM160,91.18a4.38,4.38,0,0,0-1-1.3c-.41-.33-.66-.43-.76-.29s-.56.94-1.26,2.24-1.52,2.89-2.48,4.78l-3.1,6.16q-1.65,3.32-3.09,6.3t-2.45,5.18c-.67,1.47-1.08,2.39-1.23,2.78-.28.86-.56,1.69-.82,2.48a9.1,9.1,0,0,0-.47,1.91c0,.48.11.72.47.72a4.94,4.94,0,0,0,2.05-1.15,37.05,37.05,0,0,0,8.28-8.36,44.65,44.65,0,0,0,5.54-11q.28-.93.51-1.62a10.22,10.22,0,0,0,.32-1.33,11.75,11.75,0,0,0,.14-1.37c0-.48,0-1.06,0-1.73a24.66,24.66,0,0,0-.11-2.77A4.56,4.56,0,0,0,160,91.18Zm1.73,8.21a37.27,37.27,0,0,1-1,3.88,36,36,0,0,1-1.51,4.07c-.6,1.37-1.26,2.71-2,4a39.68,39.68,0,0,1-2.24,3.63c-.52.67-1.16,1.43-1.9,2.27s-1.54,1.67-2.38,2.48-1.66,1.57-2.45,2.27a23.16,23.16,0,0,1-2.12,1.69c-.72.53-1.13.84-1.23.94s.05.14.44.14a2.3,2.3,0,0,0,.82-.18,2.8,2.8,0,0,0,.83-.47,38.39,38.39,0,0,0,13.61-18.86c.24-.77.48-1.59.72-2.48s.43-1.72.58-2.49.25-1.42.32-2,.06-.87,0-1-.12.12-.21.51S161.85,98.76,161.75,99.39Z" transform="translate(-139.04 -56.3)"/><path d="M215.17,85.56c3.84-.91,5.16-.88,4,.07a4.94,4.94,0,0,1-1.44.65c-.81.29-1.72.6-2.73.94s-2,.64-3,.9a15.3,15.3,0,0,1-2.27.47c-.43,0-.75.09-1,.14a1.25,1.25,0,0,0-.61.36,2.84,2.84,0,0,0-.54.87q-.26.57-.69,1.65a17.86,17.86,0,0,1-2.12,4,32.66,32.66,0,0,1-3.42,3.92q-6.27,6-12,5.18a9,9,0,0,1-4.68-2,15.23,15.23,0,0,1-3.6-4.14,16.39,16.39,0,0,1-2-5.11,10.73,10.73,0,0,1,.07-5.08,17.92,17.92,0,0,1,4.47-7.74c.52-.55,1.08-1.09,1.65-1.62l1.66-1.51a9.86,9.86,0,0,1,1.37-1.08c.38-.24.86-.58,1.44-1s1.12-.84,1.65-1.22a13.84,13.84,0,0,1,1.44-.94,2.86,2.86,0,0,1,.79-.36,2.59,2.59,0,0,0,.58-.14c.29-.1.55-.19.79-.29a4.57,4.57,0,0,1,1.3-.43,19.06,19.06,0,0,1,1.94-.36q5.83-.72,7.42,3.67a9.66,9.66,0,0,0,.61,1.29,4.82,4.82,0,0,0,.83,1.16c.57.77.84,1.32.79,1.65a2.42,2.42,0,0,0,.58,1.73,3.64,3.64,0,0,1,.57.94,2,2,0,0,1,.22.72.62.62,0,0,0,.14.43,1,1,0,0,0,.65.14,11.65,11.65,0,0,0,1.44-.11L214,83l2.45-.32a6.89,6.89,0,0,1,1.33-.08,1.09,1.09,0,0,1,.61.18,1,1,0,0,1,.22.44,1.43,1.43,0,0,1,0,.54.37.37,0,0,1-.18.32,4.71,4.71,0,0,1-1.44.43c-.86.2-1.84.41-2.95.65s-2.22.43-2.91.58-1.22.26-1.55.36a1.6,1.6,0,0,0-.61.25.32.32,0,0,0-.11.25c0,.1.08.16.25.18a3.59,3.59,0,0,0,.94-.07c.45-.07,1.1-.2,1.94-.4Zm-31.82,4.25c.34-.58.77-1.25,1.3-2s1-1.41,1.44-1.94a24.21,24.21,0,0,1,1.87-2c.77-.74,1.58-1.47,2.45-2.2s1.72-1.39,2.59-2,1.58-1.1,2.16-1.44A21.85,21.85,0,0,1,199,76.6a11.47,11.47,0,0,1,3.28-.61,4.65,4.65,0,0,0,1.08-.07c.09,0,0-.15-.22-.29a3.32,3.32,0,0,0-1.08-.22,11.61,11.61,0,0,0-1.87,0,19.59,19.59,0,0,0-2.34.36,12.13,12.13,0,0,0-2.34.94A21.16,21.16,0,0,0,192,78.87a36.2,36.2,0,0,0-6.52,6.22,15.28,15.28,0,0,0-2,3.14,10.88,10.88,0,0,0-1.11,2.84C182.35,91.48,182.68,91.06,183.35,89.81ZM185.44,98a4.6,4.6,0,0,0,3.13.82,9.51,9.51,0,0,0,4.07-1,16.36,16.36,0,0,0,3.27-1.87,33.36,33.36,0,0,0,3.21-2.52,14.67,14.67,0,0,0,1.19-1.19c.45-.5.88-1,1.29-1.51a12.28,12.28,0,0,0,1-1.4,2.38,2.38,0,0,0,.4-.87c0-.14-.27-.31-.8-.5-1.24-.29-2.4-1.54-3.45-3.75-.29-.62-.54-1.19-.76-1.72s-.35-.87-.39-1-.23-.35-.4-.33a6.82,6.82,0,0,0-1.33.62,20.56,20.56,0,0,0-2.67,2,32.3,32.3,0,0,0-2.66,2.59,27.92,27.92,0,0,0-2.38,3,24,24,0,0,0-1.8,3c-.09.24-.25.62-.46,1.15a10.78,10.78,0,0,0-.54,1.69,9.18,9.18,0,0,0-.26,1.73A1.32,1.32,0,0,0,185.44,98Zm19.22-6.27a9.3,9.3,0,0,0,1.05-2.41c0-.22-.4.3-1.12,1.55a22.06,22.06,0,0,1-2.66,3.64,31.26,31.26,0,0,1-3.39,3.23,25.07,25.07,0,0,1-3.74,2.56,19.69,19.69,0,0,1-3.89,1.66l-1.44.36,1.94-.08a11.25,11.25,0,0,0,1.91-.28,8.55,8.55,0,0,0,2-.8,22.17,22.17,0,0,0,5.37-3.92A19.18,19.18,0,0,0,204.66,91.68Zm-4.82-11.09c.43-.47.6-.76.5-.86s-.3,0-.61.32a1.32,1.32,0,0,0-.47.83C199.26,81.22,199.45,81.12,199.84,80.59ZM205.38,83c.39-1,.43-1.65.15-1.94a4.13,4.13,0,0,0-2.45-.43,3.88,3.88,0,0,0-1.19.14,1.72,1.72,0,0,0-.76.65c-1.29,1.68-.48,2.54,2.45,2.59a3.43,3.43,0,0,0,1.26-.14A1.83,1.83,0,0,0,205.38,83Z" transform="translate(-139.04 -56.3)"/><path d="M252.4,85.56c3.84-.91,5.16-.88,4,.07a5.25,5.25,0,0,1-1.44.65l-2.74.94c-1,.34-2,.64-3,.9a15.48,15.48,0,0,1-2.26.47c-.44,0-.76.09-1,.14a1.3,1.3,0,0,0-.61.36,2.84,2.84,0,0,0-.54.87c-.17.38-.39.93-.68,1.65a18.3,18.3,0,0,1-2.13,4,32.66,32.66,0,0,1-3.42,3.92q-6.25,6-12,5.18a9,9,0,0,1-4.68-2,15.23,15.23,0,0,1-3.6-4.14,16.89,16.89,0,0,1-2-5.11,10.6,10.6,0,0,1,.08-5.08A16,16,0,0,1,217.55,85a17.29,17.29,0,0,1,1.94-2.91,18.33,18.33,0,0,1,1.3-1.48c.53-.55,1.08-1.09,1.66-1.62l1.65-1.51a9.86,9.86,0,0,1,1.37-1.08c.38-.24.86-.58,1.44-1l1.66-1.22a12,12,0,0,1,1.44-.94,2.73,2.73,0,0,1,.79-.36,2.55,2.55,0,0,0,.57-.14l.8-.29a4.6,4.6,0,0,1,1.29-.43,18.76,18.76,0,0,1,1.95-.36c3.88-.48,6.36.74,7.41,3.67a11.09,11.09,0,0,0,.61,1.29,5.11,5.11,0,0,0,.83,1.16c.58.77.84,1.32.79,1.65a2.47,2.47,0,0,0,.58,1.73,4,4,0,0,1,.58.94,2.15,2.15,0,0,1,.21.72.58.58,0,0,0,.15.43c.09.1.31.14.64.14a11.65,11.65,0,0,0,1.44-.11l2.52-.32,2.45-.32a6.92,6.92,0,0,1,1.33-.08,1.13,1.13,0,0,1,.62.18,1.06,1.06,0,0,1,.21.44,1.44,1.44,0,0,1,0,.54.42.42,0,0,1-.18.32,5,5,0,0,1-1.44.43l-2.95.65c-1.25.24-2.23.43-2.92.58s-1.21.26-1.55.36a1.68,1.68,0,0,0-.61.25.36.36,0,0,0-.11.25c0,.1.09.16.25.18a3.59,3.59,0,0,0,.94-.07c.46-.07,1.1-.2,1.94-.4Zm-31.83,4.25c.34-.58.77-1.25,1.3-2s1-1.41,1.44-1.94a26.08,26.08,0,0,1,1.87-2c.77-.74,1.59-1.47,2.45-2.2s1.73-1.39,2.59-2,1.59-1.1,2.16-1.44a21.85,21.85,0,0,1,3.85-1.62,11.53,11.53,0,0,1,3.28-.61,4.65,4.65,0,0,0,1.08-.07c.1,0,0-.15-.22-.29a3.32,3.32,0,0,0-1.08-.22,11.61,11.61,0,0,0-1.87,0,19.59,19.59,0,0,0-2.34.36,12.13,12.13,0,0,0-2.34.94,21.58,21.58,0,0,0-3.49,2.16,36.29,36.29,0,0,0-3.49,2.95,36.8,36.8,0,0,0-3,3.27,14.78,14.78,0,0,0-2,3.14,11.49,11.49,0,0,0-1.12,2.84C219.58,91.48,219.9,91.06,220.57,89.81ZM222.66,98a4.62,4.62,0,0,0,3.13.82,9.48,9.48,0,0,0,4.07-1,16.68,16.68,0,0,0,3.28-1.87,34.43,34.43,0,0,0,3.2-2.52,13.21,13.21,0,0,0,1.19-1.19c.46-.5.89-1,1.3-1.51a13.44,13.44,0,0,0,1-1.4,2.21,2.21,0,0,0,.4-.87c0-.14-.26-.31-.79-.5q-1.87-.43-3.46-3.75c-.29-.62-.54-1.19-.75-1.72s-.35-.87-.4-1-.23-.35-.4-.33a6.82,6.82,0,0,0-1.33.62,20.5,20.5,0,0,0-2.66,2,34.05,34.05,0,0,0-2.67,2.59,27.82,27.82,0,0,0-2.37,3,24,24,0,0,0-1.8,3l-.47,1.15a10.78,10.78,0,0,0-.54,1.69,9.14,9.14,0,0,0-.25,1.73A1.29,1.29,0,0,0,222.66,98Zm19.23-6.27a9.07,9.07,0,0,0,1-2.41c0-.22-.4.3-1.12,1.55a22.06,22.06,0,0,1-2.66,3.64,32.11,32.11,0,0,1-3.38,3.23,25.15,25.15,0,0,1-3.75,2.56,19.44,19.44,0,0,1-3.89,1.66l-1.44.36,1.95-.08a11.56,11.56,0,0,0,1.91-.28,8.55,8.55,0,0,0,2-.8,21.93,21.93,0,0,0,5.36-3.92A19.41,19.41,0,0,0,241.89,91.68Zm-4.83-11.09c.43-.47.6-.76.51-.86s-.3,0-.62.32a1.3,1.3,0,0,0-.46.83C236.49,81.22,236.68,81.12,237.06,80.59ZM242.61,83c.38-1,.43-1.65.14-1.94a4.11,4.11,0,0,0-2.45-.43,3.92,3.92,0,0,0-1.19.14,1.71,1.71,0,0,0-.75.65q-2,2.52,2.45,2.59a3.43,3.43,0,0,0,1.26-.14A2,2,0,0,0,242.61,83Z" transform="translate(-139.04 -56.3)"/><path d="M304.38,62.52a2.34,2.34,0,0,1-.5,2.45l-.83,1.22c-.36.53-.73,1.06-1.12,1.59S301,69.05,300.24,70s-1.48,1.87-2.2,2.74-1.5,1.81-2.33,2.84-1.51,1.84-2,2.41-.93,1.14-1.65,2.13-1.6,2.13-2.63,3.45-2.17,2.81-3.42,4.47-2.54,3.37-3.89,5.14c-.57.82-1.28,1.87-2.12,3.14s-1.65,2.55-2.41,3.85-1.46,2.5-2.06,3.6a16.71,16.71,0,0,0-1.11,2.3q-.44,1.52,3.24-1.08a56.23,56.23,0,0,0,7-5.54A41.24,41.24,0,0,0,290,93.55c.38-.52.73-1,1-1.33l.62-.68c.24-.14.24-.05,0,.29s-.39.69-.29.93a1.1,1.1,0,0,1-.14.9c-.2.36-.37.5-.51.4s-.31,0-.22.43-.12.53-.35.43-.32,0-.22.29-.16.52-.61,1.12-1,1.29-1.7,2.09-1.41,1.59-2.23,2.41-1.53,1.51-2.16,2.09l-2.08,1.72c-.77.63-1.54,1.2-2.31,1.73s-1.46,1-2.09,1.4a13.73,13.73,0,0,1-1.37.83,1.67,1.67,0,0,0-.54.33c-.12.12-.13.2,0,.25s.81,0,1.73-.51a24,24,0,0,0,3.09-2,46.77,46.77,0,0,0,6.37-5.51,54.68,54.68,0,0,0,5.37-6.3c.48-.72.45-.55-.07.5a15.37,15.37,0,0,1-1.88,2.81c-.91,1.15-2,2.37-3.16,3.64s-2.45,2.52-3.75,3.74a36.46,36.46,0,0,1-3.6,3.06,14.61,14.61,0,0,1-3.27,2,2.8,2.8,0,0,1-2.2-.1c-.67-.25-1-.49-1-.73a1.56,1.56,0,0,0-.39-.61c-.27-.31-.59-.66-1-1a6.67,6.67,0,0,1-1.69-2.52,8.19,8.19,0,0,1-.25-3.1l.22-1.94-1,1a24.84,24.84,0,0,1-3.39,2.66,26,26,0,0,1-4,2.2,15.55,15.55,0,0,1-4,1.18,5.9,5.9,0,0,1-3.53-.46,5.57,5.57,0,0,1-2.49-2.67A12.69,12.69,0,0,1,250,99a18.15,18.15,0,0,1,1.15-6.16,27.9,27.9,0,0,1,3.17-6.19A36.82,36.82,0,0,1,259,81.06a25.9,25.9,0,0,1,5.83-4.35q7-4,12.53-2.23a6.65,6.65,0,0,1,1.94.86A16.42,16.42,0,0,1,281.13,77L283,78.87l.79-1.08q1.29-1.67,3.74-4.39c1.63-1.83,3.33-3.64,5.08-5.44s3.39-3.41,4.93-4.83a32.89,32.89,0,0,1,3.17-2.69c1.29-.77,2.16-.73,2.59.14a1,1,0,0,1,.07.83,5,5,0,0,1-.93,1.11c-.77.72-1.13,1.15-1.08,1.3s.45-.12,1.22-.79a4.82,4.82,0,0,1,1.3-1C304.12,62,304.28,62.14,304.38,62.52ZM253.48,98a14.87,14.87,0,0,1,.68-1.77l.83-1.83a31.11,31.11,0,0,1,3.85-6,36.41,36.41,0,0,1,5.08-5.15,31.51,31.51,0,0,1,5.68-3.78,20.77,20.77,0,0,1,5.76-2l2.45-.51h-1.73a16.63,16.63,0,0,0-7.27,1.66,24.42,24.42,0,0,0-5,3.24,36,36,0,0,0-4.53,4.46,32.38,32.38,0,0,0-3.64,5.22,22.11,22.11,0,0,0-2.2,5.44,10.08,10.08,0,0,0-.46,2.27Q253,99.6,253.48,98Zm26.78-15.41c1.1-1.39,1.58-2.24,1.44-2.56s-1.06-.44-2.74-.39a17.6,17.6,0,0,0-8,2.12,33,33,0,0,0-8.06,6.37,23.94,23.94,0,0,0-1.73,2.16c-.82,1.11-1.66,2.34-2.52,3.71s-1.64,2.75-2.34,4.14a12.13,12.13,0,0,0-1.26,3.53c-.14,1,.11,1.57.76,1.84s1.88,0,3.7-.91a16.51,16.51,0,0,0,2.63-1.51c1.08-.72,2.23-1.55,3.46-2.48s2.43-1.91,3.63-2.92,2.26-2,3.17-2.88a18.43,18.43,0,0,0,1.91-2.12c.74-.94,1.4-1.81,2-2.63s1.25-1.82,2-2.88S279.73,83.21,280.26,82.54ZM270.9,97.23c.19-.34.26-.52.22-.54s-.22.08-.51.32-.65.52-1.37,1.12l-2.3,1.9q-2.73,2.31-4.68,3.64a16.9,16.9,0,0,1-3.46,1.91,7.59,7.59,0,0,0-1.72.83c-.2.17.12.18.93,0a6.06,6.06,0,0,0,1.33-.39q.84-.33,1.62-.69a23.23,23.23,0,0,0,2.52-1.62c1.06-.74,2.1-1.53,3.14-2.37s1.95-1.65,2.77-2.41A8,8,0,0,0,270.9,97.23Zm10.51-8.43-1.73,1.87a29.7,29.7,0,0,0-2.44,3.06c-.87,1.23-1.67,2.48-2.42,3.75s-1.39,2.5-1.94,3.67a12.72,12.72,0,0,0-1,2.92c-.1.38-.17.69-.22.93s-.05.34,0,.29a5.73,5.73,0,0,0,.68-1.22c.41-.82.9-1.78,1.48-2.88.29-.58.64-1.21,1-1.91l1.26-2.16,1.3-2.2c.43-.72.84-1.37,1.22-1.94Zm18.51-22.46a13.19,13.19,0,0,0,1.4-1.62c.12-.22,0-.16-.47.18A8.78,8.78,0,0,0,299.67,66c-.46.48-.88,1-1.27,1.44s-.72.88-1,1.19-.48.44-.58.39-.29.15-.72.58-1,1-1.62,1.73-1.37,1.53-2.16,2.44-1.58,1.85-2.38,2.81l-2.26,2.77q-1.08,1.33-1.8,2.34-2,2.89,4.17-4.6,1.67-1.87,3.1-3.64c1-1.17,1.61-2,1.94-2.34s.62-.67.83-.86.33-.24.33-.15.28.07.86-.5c.24-.29.63-.74,1.19-1.37S299.39,67,299.92,66.34Z" transform="translate(-139.04 -56.3)"/><path d="M307.19,99.75q2.16-1.95,3.31-3c.77-.72,1.32-1.22,1.66-1.51a2.75,2.75,0,0,1,.5-.4,1.8,1.8,0,0,1-.14.33,12,12,0,0,1-1.41,1.76c-.79.89-1.72,1.86-2.77,2.92s-2.15,2.11-3.28,3.17-2.1,1.92-2.91,2.59c-1.15,1-2.13,1.74-2.92,2.34s-1.46,1.08-2,1.44a5.65,5.65,0,0,1-1.48.72,8.28,8.28,0,0,1-1.3.25,3.09,3.09,0,0,1-2.23-.86,10.33,10.33,0,0,1-1.94-2.31,14,14,0,0,1-1.37-2.77,6.94,6.94,0,0,1-.5-2.27,14.91,14.91,0,0,1,1.18-5.22,31.56,31.56,0,0,1,3.21-6.08c.43-.62,1.1-1.54,2-2.74s1.89-2.45,2.92-3.74,2-2.51,3-3.64,1.74-2,2.27-2.55a13.24,13.24,0,0,1,3.93-3.24c.88-.34,1.45,0,1.69,1.15a1.89,1.89,0,0,1,0,1,4.21,4.21,0,0,1-.87,1.08c-.57.62-1.28,1.45-2.12,2.48s-1.74,2.17-2.7,3.42S301,86.61,300,88s-2,2.67-2.85,3.92-1.66,2.37-2.34,3.38a24.59,24.59,0,0,0-1.44,2.38,15.83,15.83,0,0,0-1.65,3.85c0,.41.55-.4,1.65-2.41.48-.82,1.3-2.06,2.45-3.75s2.43-3.45,3.82-5.32,2.77-3.7,4.14-5.48,2.48-3.16,3.35-4.17c.47-.53.88-1,1.22-1.44a2.61,2.61,0,0,0,.5-.79c0-.24.21-.33.62-.25s.66.22.75.46a2.11,2.11,0,0,1,0,1.3,9.83,9.83,0,0,1-1,2.16q-.83,1.44-2.52,3.92t-4.57,6.52q-4.11,5.76-6,8.85c-1.25,2.07-1.87,3.44-1.87,4.11a1.17,1.17,0,0,0,0,.39c0,.08.1.1.25.08a2.81,2.81,0,0,0,.68-.29c.31-.17.73-.42,1.26-.76a60.68,60.68,0,0,0,5.29-3.53c1.9-1.39,3.66-2.8,5.3-4.24q2.73-2.39,4.32-3.64c1.05-.84,1.44-1.07,1.15-.68s-.41.57-.22.72,0,.39-.32.75-.64.47-.83.33-.22,0-.07.21-.18.43-.69,1-1.16,1.27-2,2.09-1.71,1.67-2.7,2.55-1.9,1.67-2.77,2.34c-.62.53-1.33,1.08-2.12,1.66s-1.57,1.12-2.34,1.62-1.47,1-2.09,1.33a12.76,12.76,0,0,1-1.44.8l-.65.32c-.05,0,.1.08.43.18a1.82,1.82,0,0,0,.83-.07,4.74,4.74,0,0,0,1.05-.43,16.72,16.72,0,0,0,2-1.27c.87-.59,1.79-1.29,2.77-2.08s2-1.61,3-2.45S306.37,100.52,307.19,99.75Zm13-40.11a3.56,3.56,0,0,1,.9,3.17A7.7,7.7,0,0,1,319,66.55c-.53.53-1.17,1.25-1.91,2.16s-1.45,1.8-2.13,2.67-1.25,1.62-1.72,2.27-.7,1-.65,1a2.1,2.1,0,0,1-.15.94,1.14,1.14,0,0,1-1.18.72,1.63,1.63,0,0,1-1.41-.72,2.08,2.08,0,0,1-.5-1.23,1.83,1.83,0,0,0-.29-.79c-.19-.33-.41-.69-.65-1.08a12.87,12.87,0,0,1-.68-1.22,4.07,4.07,0,0,1-.4-1.08,7.65,7.65,0,0,1,.65-4.32,12.86,12.86,0,0,1,2.81-4.25,14.34,14.34,0,0,1,1.37-1.12c.67-.5,1.34-1,2-1.4l1.91-1.37a5.92,5.92,0,0,0,1.12-.94c.81-.86,1.41-.67,1.8.58a5.14,5.14,0,0,0,.5,1.15A7.21,7.21,0,0,0,320.22,59.64Zm-2,2.24c.44-.68-.09-.37-1.58.93a40.52,40.52,0,0,0-3.2,3.1,16.65,16.65,0,0,0-2.27,2.88c-.15.28.09.14.72-.44s1.38-1.29,2.27-2.16,1.74-1.72,2.55-2.59A17.76,17.76,0,0,0,318.2,61.88Z" transform="translate(-139.04 -56.3)"/><path d="M341,92l-1.59,1.73a10.75,10.75,0,0,1-1.12,1.12c-.35.31-.58.46-.68.46s-.12,0-.07.22-.17.35-.65.76-1.13.92-1.94,1.55S333.13,99.21,332,100s-2.26,1.6-3.46,2.41c-1,.67-1.88,1.24-2.63,1.69s-1.44.86-2.08,1.19a18,18,0,0,1-1.88.86c-.6.25-1.23.49-1.9.73-1.25.48-1.8.74-1.66.79a4.87,4.87,0,0,0,1.08-.25c.53-.17,1.13-.38,1.8-.62s1.34-.51,2-.82,1.22-.59,1.65-.83,1.36-.82,2.34-1.44,2-1.3,3.1-2,2.12-1.44,3.13-2.16,1.82-1.3,2.45-1.73c1.39-1,2.17-1.63,2.34-1.73s0,.2-.62.87a26.67,26.67,0,0,1-2.88,2.55q-1.93,1.56-4.17,3.1c-1.49,1-3,2-4.39,2.92a35,35,0,0,1-3.53,2,17.77,17.77,0,0,1-6.52,1.73,8.74,8.74,0,0,1-5.14-1.15,6.68,6.68,0,0,1-2.88-4,13,13,0,0,1,.35-6.92A42.34,42.34,0,0,1,310,92.94a24.22,24.22,0,0,1,2.05-3.85A39.42,39.42,0,0,1,315,85.27c1.11-1.29,2.4-2.66,3.89-4.1a46.54,46.54,0,0,1,5.55-4.71,23.13,23.13,0,0,1,5.25-2.85,6.23,6.23,0,0,1,3.78-.47,3.58,3.58,0,0,1,2.41,2,10.14,10.14,0,0,0,.65,1,2.44,2.44,0,0,0,.72.72q1.8,1.23,1.26,4.36a17.12,17.12,0,0,1-3.06,6.73,22.16,22.16,0,0,1-8.06,6.55,11.11,11.11,0,0,1-2.27,1,11.71,11.71,0,0,1-2.12.25,14.26,14.26,0,0,1-1.59-.07,3,3,0,0,1-1.19-.36,8,8,0,0,1-1.11-.72,9.28,9.28,0,0,1-1.3-1.22,10.32,10.32,0,0,0-1.26-1.23.36.36,0,0,0-.54.08,46.1,46.1,0,0,0-3.89,6.94,9.92,9.92,0,0,0-1.11,5.3c.21,1.34,1.19,2.07,2.91,2.19s4.47-.66,8.21-2.34a32.68,32.68,0,0,0,3.31-1.76c1.35-.79,2.77-1.67,4.29-2.63s3-2,4.57-3,2.93-2,4.17-3Zm-28,.51c-.72,1.29-1,1.88-.83,1.76a12.49,12.49,0,0,0,1.4-2.2,30.29,30.29,0,0,1,2.16-2.84c.91-1.08,2.26-2.48,4-4.21,1.06-1.06,1.94-1.92,2.63-2.59s1.32-1.24,1.87-1.7a18.22,18.22,0,0,1,1.62-1.18q.8-.51,1.8-1.08c.87-.48,1.73-.94,2.6-1.37s1.48-.72,1.87-.87c1-.33,1.25-.5.57-.5a5.42,5.42,0,0,0-1.58.47,24.84,24.84,0,0,0-2.48,1.19q-1.33.72-2.67,1.47a16.14,16.14,0,0,0-2.12,1.41,52.22,52.22,0,0,0-6.3,6A34.53,34.53,0,0,0,313,92.55ZM317.41,108c.34,0,.41-.08.22-.22s-.48-.1-.58,0S317,108,317.41,108Zm16.85-29.6c0-.33-.22-.43-.65-.29s-.78.32-1.48.65-1.42.71-2.19,1.12-1.51.82-2.23,1.22a15.74,15.74,0,0,0-1.66,1c-.38.29-1.05.87-2,1.76s-2,1.81-3,2.77-1.89,1.84-2.66,2.63a6.7,6.7,0,0,0-1.15,1.33c0,.29.26.57.79.83a3.43,3.43,0,0,0,1.58.4,4.93,4.93,0,0,0,1.08-.15,7.65,7.65,0,0,0,1.23-.36,10.82,10.82,0,0,0,2.09-1c.81-.51,1.64-1,2.48-1.62s1.62-1.15,2.34-1.73a12.22,12.22,0,0,0,1.58-1.44c.29-.38.66-.94,1.12-1.66s.87-1.45,1.26-2.19.72-1.43,1-2A4,4,0,0,0,334.26,78.36Zm1.15,4.83c-.05,0-.18.17-.4.5l-.82,1.3c-.48.72-1,1.39-1.48,2A15.07,15.07,0,0,1,331,88.84a24.46,24.46,0,0,1-2.31,1.8c-.86.6-1.87,1.24-3,1.91a10.7,10.7,0,0,0-1.19.83c-.26.21-.28.27,0,.17a5.34,5.34,0,0,0,1.29-.57l1.94-1.08a19,19,0,0,0,4.11-3.1,16.12,16.12,0,0,0,2.81-3.67c.28-.53.51-1,.68-1.37S335.46,83.19,335.41,83.19Z" transform="translate(-139.04 -56.3)"/><path d="M322.79,114.46c-12-.08-23.78.17-35.59,1.07l-4.41.28-4.42.39c-2.94.22-5.87.58-8.81.85s-5.86.67-8.8,1L252,119.13c-11.69,1.59-23.35,3.5-35,5.64q-8.72,1.64-17.41,3.41c-2.9.61-5.81,1.16-8.7,1.8l-4.33.94-2.14.48-1.07.23-.54.12-.27.05-.13,0h-.07l-.24.06a2.12,2.12,0,0,1-.5,0l.61-.08c-2.74.6-5.47,1.2-8.2,1.84l-8.19,1.88-16.4,3.92c2.54-1.22,5.13-2.36,7.73-3.43S162.39,134,165,133s5.28-2,7.95-2.89,5.34-1.8,8-2.68l.61-.08a2.08,2.08,0,0,0-.43,0l-.17,0,.06,0,.14,0,.27-.09.54-.17,1.08-.33,2.18-.66,4.31-1.28q4.31-1.28,8.64-2.44,8.67-2.3,17.46-4.18a356.19,356.19,0,0,1,35.48-5.76c6-.64,11.94-1.14,17.93-1.42,3-.14,6-.26,9-.27l4.49,0,4.51,0A193.24,193.24,0,0,1,322.79,114.46Z" transform="translate(-139.04 -56.3)"/><path class="cls-1" d="M290.53,113l-6.87.51c-2.29.19-4.57.45-6.85.68s-4.56.51-6.84.77-4.56.54-6.83.87q-13.65,1.8-27.24,4.08c-9.06,1.44-18.11,3-27.14,4.67l-13.55,2.47-13.55,2.53h0c8.94-2.11,17.94-4,27-5.76s18.07-3.38,27.13-4.89,18.17-2.82,27.3-3.86S281.34,113.19,290.53,113Z" transform="translate(-139.04 -56.3)"/></svg>